# xmcd
#
# Track frame offsets:
#	187
#	37340
#	89622
#	114445
#	167252
#	238517
#
# Disc length: 3991 seconds
#
# Revision: 1
# Processed by: cddbd v1.5.1PL0 Copyright (c) Steve Scherf et al.
# Submitted via: CDex 1.50Beta5
#
DISCID=450f9506
DTITLE=Sir Georg Solti/Chicago Symphony - Beethoven and Schubert
DYEAR=1900
DGENRE=Classical
TTITLE0=Georg Solti/Chicago Phil./運命・第一楽章
TTITLE1=Georg Solti/Chicago Phil./運命・第二楽章
TTITLE2=Georg Solti/Chicago Phil./運命・第三楽章
TTITLE3=Georg Solti/Chicago Phil./運命・第四楽章
TTITLE4=Georg Solti/Vienna Phil./未完成・第一楽章
TTITLE5=Georg Solti/Vienna Phil./未完成・第二楽章
EXTD=
EXTT0=
EXTT1=
EXTT2=
EXTT3=
EXTT4=
EXTT5=
PLAYORDER=
